<svg width="764" height="542" viewBox="0 0 764 542" fill="none" xmlns="http://www.w3.org/2000/svg">
<path d="M240.7 440.866C232.801 452.892 215.167 452.892 207.267 440.866L50.3566 201.975C41.621 188.675 51.1612 170.995 67.0732 170.995H380.895C396.807 170.995 406.347 188.675 397.611 201.975L240.7 440.866Z" fill="white"/>
<path d="M556.733 440.866C548.833 452.892 531.199 452.892 523.3 440.866L366.389 201.975C357.653 188.675 367.193 170.995 383.105 170.995H696.927C712.839 170.995 722.379 188.675 713.643 201.975L556.733 440.866Z" fill="#FFFDFD"/>
<rect x="220.916" y="176.876" width="319.1" height="273.076" fill="white"/>
<circle cx="204.552" cy="500.067" r="41.9331" fill="#FFFCFC"/>
<circle cx="563.539" cy="500.067" r="41.9331" fill="white"/>
<rect x="530.849" y="211.071" width="220.992" height="37.4506" rx="18.7253" transform="rotate(-120 530.849 211.071)" fill="white"/>
<rect x="246.523" y="211.071" width="220.992" height="37.4506" rx="18.7253" transform="rotate(-120 246.523 211.071)" fill="white"/>
</svg>
